<svg width="106" height="195" viewBox="0 0 106 195" fill="none" xmlns="http://www.w3.org/2000/svg">
<rect y="0.793091" width="106" height="176" rx="8" fill="url(#paint0_linear_1866_158055)"/>
<rect width="90" height="160" transform="translate(8 8.79309)" fill="white"/>
<path d="M57.1259 60.2626C57.1259 62.3498 55.3055 63.9929 53.06 63.9929C50.8145 63.9929 48.9941 62.3498 48.9941 60.2626C49.111 57.9278 51.446 50.4694 52.6077 47.0094C52.7569 46.5648 53.3662 46.5638 53.5184 47.0074C54.682 50.3995 57.0092 57.5877 57.1259 60.2626Z" fill="url(#paint1_linear_1866_158055)"/>
<path d="M70.0325 70.095C70.7952 70.7578 71.957 70.6807 72.5608 69.8704C74.9813 66.6226 76.5609 62.8145 77.1437 58.7867C77.8141 54.1537 77.1374 49.4258 75.1943 45.1669C73.2512 40.9081 70.1237 37.2982 66.1852 34.7681C62.2467 32.238 57.6634 30.8945 52.9822 30.8979C48.301 30.9013 43.7197 32.2515 39.7848 34.7874C35.85 37.3232 32.7279 40.9376 30.791 45.1993C28.8541 49.461 28.1842 54.1899 28.8614 58.8219C29.4501 62.8488 31.0353 66.6546 33.4604 69.899C34.0654 70.7083 35.2273 70.7838 35.9891 70.1199C36.7508 69.4559 36.8228 68.3045 36.2285 67.4872C34.2589 64.7783 32.9693 61.6245 32.4822 58.2926C31.9066 54.3554 32.476 50.3358 34.1223 46.7134C35.7687 43.091 38.4225 40.0187 41.7671 37.8632C45.1117 35.7078 49.0059 34.5601 52.9849 34.5572C56.9639 34.5543 60.8597 35.6963 64.2074 37.8469C67.5552 39.9974 70.2135 43.0658 71.8651 46.6858C73.5168 50.3059 74.092 54.3246 73.5222 58.2626C73.0399 61.5953 71.7549 64.7509 69.7892 67.4627C69.1962 68.2809 69.2698 69.4322 70.0325 70.095Z" fill="url(#paint2_linear_1866_158055)"/>
<circle cx="39.3378" cy="66.0258" r="1.01647" fill="url(#paint3_linear_1866_158055)"/>
<circle cx="35.7801" cy="58.9106" r="1.01647" fill="url(#paint4_linear_1866_158055)"/>
<circle cx="69.8319" cy="58.9106" r="1.01647" fill="url(#paint5_linear_1866_158055)"/>
<circle cx="36.2884" cy="51.7953" r="1.01647" fill="url(#paint6_linear_1866_158055)"/>
<circle cx="45.4364" cy="40.6142" r="1.01647" fill="url(#paint7_linear_1866_158055)"/>
<circle cx="39.3378" cy="44.6801" r="1.01647" fill="url(#paint8_linear_1866_158055)"/>
<circle cx="66.2743" cy="44.6801" r="1.01647" fill="url(#paint9_linear_1866_158055)"/>
<circle cx="60.6835" cy="40.6142" r="1.01647" fill="url(#paint10_linear_1866_158055)"/>
<circle cx="69.8319" cy="51.7953" r="1.01647" fill="url(#paint11_linear_1866_158055)"/>
<circle cx="66.7826" cy="66.0258" r="1.01647" fill="url(#paint12_linear_1866_158055)"/>
<circle cx="53.0599" cy="39.0895" r="1.01647" fill="url(#paint13_linear_1866_158055)"/>
<rect x="19" y="91.7931" width="30" height="20" rx="4" fill="url(#paint14_linear_1866_158055)"/>
<path d="M30.1562 98.3712V98.7931H28.6445V98.3712H30.1562ZM28.8086 95.9493V98.7931H28.2715V95.9493H28.8086ZM29.959 97.1232V97.5353H28.6445V97.1232H29.959ZM30.1504 95.9493V96.3732H28.6445V95.9493H30.1504ZM31.1406 98.4025L31.6328 96.6798H32.1719L31.4473 98.7931H31.1191L31.1406 98.4025ZM30.7812 96.6798L31.2793 98.4064L31.2969 98.7931H30.9668L30.2402 96.6798H30.7812ZM33.3652 98.8322C33.2051 98.8322 33.0612 98.8061 32.9336 98.754C32.806 98.7019 32.6973 98.6297 32.6074 98.5372C32.5189 98.4435 32.4505 98.3348 32.4023 98.2111C32.3555 98.0861 32.332 97.9519 32.332 97.8087V97.7306C32.332 97.5678 32.3555 97.42 32.4023 97.2872C32.4492 97.1531 32.5156 97.0379 32.6016 96.9415C32.6875 96.8452 32.7904 96.771 32.9102 96.7189C33.0299 96.6668 33.1621 96.6407 33.3066 96.6407C33.4564 96.6407 33.5885 96.6661 33.7031 96.7169C33.8177 96.7664 33.9134 96.8367 33.9902 96.9279C34.0671 97.019 34.125 97.1284 34.1641 97.256C34.2031 97.3823 34.2227 97.5223 34.2227 97.6759V97.8927H32.5664V97.5372H33.7148V97.4982C33.7122 97.4161 33.6966 97.3413 33.668 97.2736C33.6393 97.2045 33.5951 97.1499 33.5352 97.1095C33.4753 97.0678 33.3978 97.047 33.3027 97.047C33.2259 97.047 33.1589 97.0639 33.1016 97.0978C33.0456 97.1303 32.9987 97.1772 32.9609 97.2384C32.9245 97.2983 32.8971 97.3699 32.8789 97.4532C32.8607 97.5366 32.8516 97.629 32.8516 97.7306V97.8087C32.8516 97.8973 32.8633 97.9793 32.8867 98.0548C32.9115 98.1303 32.9473 98.1961 32.9941 98.2521C33.0423 98.3068 33.0996 98.3497 33.166 98.381C33.2337 98.4109 33.3105 98.4259 33.3965 98.4259C33.5046 98.4259 33.6022 98.4051 33.6895 98.3634C33.778 98.3204 33.8548 98.2573 33.9199 98.174L34.1797 98.4435C34.1354 98.5086 34.0755 98.5711 34 98.631C33.9258 98.6909 33.8359 98.7397 33.7305 98.7775C33.625 98.8139 33.5033 98.8322 33.3652 98.8322ZM35.0742 97.131V98.7931H34.5586V96.6798H35.043L35.0742 97.131ZM34.9922 97.6603H34.8398C34.8411 97.5066 34.862 97.3673 34.9023 97.2423C34.9427 97.1173 34.9993 97.0099 35.0723 96.92C35.1465 96.8302 35.2344 96.7612 35.3359 96.713C35.4375 96.6648 35.5508 96.6407 35.6758 96.6407C35.7773 96.6407 35.8691 96.6551 35.9512 96.6837C36.0332 96.7124 36.1035 96.7579 36.1621 96.8204C36.222 96.8829 36.2676 96.965 36.2988 97.0665C36.3314 97.1668 36.3477 97.2905 36.3477 97.4376V98.7931H35.8281V97.4337C35.8281 97.3374 35.8138 97.2612 35.7852 97.2052C35.7578 97.1492 35.7174 97.1095 35.6641 97.0861C35.612 97.0626 35.5475 97.0509 35.4707 97.0509C35.3913 97.0509 35.3216 97.0672 35.2617 97.0997C35.2031 97.131 35.1536 97.1746 35.1133 97.2306C35.0742 97.2866 35.0443 97.351 35.0234 97.424C35.0026 97.4969 34.9922 97.5756 34.9922 97.6603ZM37.8027 96.6798V97.0509H36.5918V96.6798H37.8027ZM36.916 96.1603H37.4336V98.1837C37.4336 98.2462 37.4421 98.2944 37.459 98.3282C37.4759 98.3621 37.5013 98.3849 37.5352 98.3966C37.569 98.4083 37.6094 98.4142 37.6562 98.4142C37.6901 98.4142 37.7214 98.4122 37.75 98.4083C37.7786 98.4044 37.8027 98.4005 37.8223 98.3966L37.8242 98.7833C37.7812 98.7976 37.7324 98.8094 37.6777 98.8185C37.6243 98.8276 37.5638 98.8322 37.4961 98.8322C37.3802 98.8322 37.2786 98.8126 37.1914 98.7736C37.1042 98.7332 37.0365 98.6687 36.9883 98.5802C36.9401 98.4904 36.916 98.3719 36.916 98.2247V96.1603ZM39.3086 98.215C39.3086 98.1707 39.2969 98.131 39.2734 98.0958C39.25 98.0607 39.2057 98.0288 39.1406 98.0001C39.0768 97.9702 38.9831 97.9422 38.8594 97.9161C38.75 97.8927 38.6491 97.8634 38.5566 97.8282C38.4642 97.7931 38.3848 97.7508 38.3184 97.7013C38.252 97.6505 38.1999 97.5913 38.1621 97.5236C38.1257 97.4545 38.1074 97.3751 38.1074 97.2853C38.1074 97.198 38.1263 97.116 38.1641 97.0392C38.2018 96.9611 38.2565 96.8927 38.3281 96.8341C38.3997 96.7742 38.487 96.7273 38.5898 96.6935C38.6927 96.6583 38.8086 96.6407 38.9375 96.6407C39.1172 96.6407 39.2715 96.67 39.4004 96.7286C39.5306 96.7872 39.6302 96.868 39.6992 96.9708C39.7682 97.0724 39.8027 97.187 39.8027 97.3146H39.2871C39.2871 97.2586 39.2741 97.2078 39.248 97.1622C39.2233 97.1167 39.1849 97.0802 39.1328 97.0529C39.0807 97.0242 39.015 97.0099 38.9355 97.0099C38.8639 97.0099 38.8034 97.0216 38.7539 97.045C38.7057 97.0685 38.6693 97.0991 38.6445 97.1368C38.6198 97.1746 38.6074 97.2163 38.6074 97.2618C38.6074 97.2957 38.6139 97.3263 38.627 97.3536C38.6413 97.3797 38.6641 97.4038 38.6953 97.4259C38.7266 97.448 38.7689 97.4682 38.8223 97.4865C38.877 97.5047 38.944 97.5223 39.0234 97.5392C39.181 97.5704 39.3184 97.6121 39.4355 97.6642C39.554 97.715 39.6465 97.7827 39.7129 97.8673C39.7793 97.9519 39.8125 98.06 39.8125 98.1915C39.8125 98.2853 39.7923 98.3712 39.752 98.4493C39.7116 98.5262 39.653 98.5932 39.5762 98.6505C39.4993 98.7078 39.4076 98.7527 39.3008 98.7853C39.194 98.8165 39.0736 98.8322 38.9395 98.8322C38.7454 98.8322 38.5814 98.7976 38.4473 98.7286C38.3132 98.6583 38.2116 98.5698 38.1426 98.463C38.0736 98.3549 38.0391 98.243 38.0391 98.1271H38.5332C38.5371 98.2091 38.5592 98.2749 38.5996 98.3243C38.64 98.3738 38.6908 98.4096 38.752 98.4318C38.8145 98.4526 38.8802 98.463 38.9492 98.463C39.0273 98.463 39.0931 98.4526 39.1465 98.4318C39.1999 98.4096 39.2402 98.3803 39.2676 98.3439C39.2949 98.3061 39.3086 98.2631 39.3086 98.215Z" fill="white"/>
<path d="M32.0332 104.942V107.793H31.5156V105.545L30.8301 105.772V105.354L31.9746 104.942H32.0332ZM33.502 106.484L33.0898 106.385L33.248 104.949H34.8125V105.377H33.6758L33.6016 106.041C33.6419 106.016 33.7005 105.992 33.7773 105.967C33.8555 105.941 33.9434 105.928 34.041 105.928C34.1764 105.928 34.2975 105.95 34.4043 105.994C34.5111 106.037 34.6016 106.1 34.6758 106.182C34.7513 106.264 34.8079 106.364 34.8457 106.483C34.8848 106.6 34.9043 106.733 34.9043 106.881C34.9043 107.011 34.8848 107.134 34.8457 107.248C34.8079 107.361 34.75 107.462 34.6719 107.551C34.5938 107.638 34.4954 107.707 34.377 107.758C34.2585 107.807 34.1191 107.832 33.959 107.832C33.8379 107.832 33.7214 107.815 33.6094 107.779C33.4987 107.743 33.3991 107.69 33.3105 107.621C33.222 107.551 33.151 107.465 33.0977 107.363C33.0456 107.262 33.0169 107.145 33.0117 107.014H33.5215C33.5306 107.101 33.554 107.175 33.5918 107.236C33.6296 107.298 33.679 107.345 33.7402 107.377C33.8027 107.41 33.875 107.426 33.957 107.426C34.0312 107.426 34.0951 107.412 34.1484 107.385C34.2031 107.356 34.248 107.317 34.2832 107.266C34.3184 107.215 34.3444 107.155 34.3613 107.086C34.3783 107.017 34.3867 106.942 34.3867 106.859C34.3867 106.78 34.377 106.708 34.3574 106.643C34.3379 106.576 34.3079 106.519 34.2676 106.471C34.2272 106.423 34.1764 106.386 34.1152 106.359C34.0553 106.333 33.985 106.32 33.9043 106.32C33.7962 106.32 33.7129 106.337 33.6543 106.369C33.597 106.402 33.5462 106.44 33.502 106.484ZM35.8398 106.143H36.1309C36.2337 106.143 36.3184 106.125 36.3848 106.09C36.4525 106.054 36.5026 106.004 36.5352 105.942C36.569 105.878 36.5859 105.804 36.5859 105.721C36.5859 105.639 36.571 105.568 36.541 105.508C36.5111 105.447 36.4655 105.4 36.4043 105.367C36.3444 105.333 36.2676 105.317 36.1738 105.317C36.0983 105.317 36.0286 105.332 35.9648 105.361C35.9023 105.391 35.8522 105.434 35.8145 105.49C35.778 105.545 35.7598 105.611 35.7598 105.688H35.2422C35.2422 105.534 35.2826 105.399 35.3633 105.283C35.4453 105.166 35.556 105.074 35.6953 105.008C35.8346 104.942 35.9902 104.908 36.1621 104.908C36.3496 104.908 36.5137 104.94 36.6543 105.002C36.7962 105.063 36.9062 105.154 36.9844 105.274C37.0638 105.393 37.1035 105.542 37.1035 105.719C37.1035 105.804 37.0833 105.888 37.043 105.973C37.0039 106.056 36.946 106.132 36.8691 106.199C36.7936 106.266 36.7005 106.32 36.5898 106.361C36.4805 106.402 36.3548 106.422 36.2129 106.422H35.8398V106.143ZM35.8398 106.541V106.266H36.2129C36.373 106.266 36.5117 106.285 36.6289 106.322C36.7474 106.359 36.8451 106.411 36.9219 106.479C36.9987 106.545 37.0553 106.623 37.0918 106.711C37.1296 106.8 37.1484 106.895 37.1484 106.996C37.1484 107.129 37.1237 107.248 37.0742 107.352C37.0247 107.455 36.9551 107.542 36.8652 107.613C36.7767 107.685 36.6725 107.74 36.5527 107.777C36.4329 107.814 36.3034 107.832 36.1641 107.832C36.043 107.832 35.9251 107.816 35.8105 107.783C35.6973 107.749 35.5951 107.699 35.5039 107.633C35.4128 107.565 35.3405 107.481 35.2871 107.379C35.2337 107.276 35.207 107.157 35.207 107.022H35.7246C35.7246 107.1 35.7435 107.169 35.7812 107.231C35.8203 107.292 35.8737 107.34 35.9414 107.375C36.0104 107.409 36.0879 107.426 36.1738 107.426C36.2689 107.426 36.3503 107.409 36.418 107.375C36.487 107.34 36.5397 107.29 36.5762 107.227C36.6126 107.162 36.6309 107.084 36.6309 106.994C36.6309 106.887 36.6107 106.801 36.5703 106.734C36.5299 106.668 36.472 106.619 36.3965 106.588C36.3223 106.557 36.2337 106.541 36.1309 106.541H35.8398Z" fill="white"/>
<rect x="57" y="91.7931" width="30" height="20" rx="4" fill="url(#paint15_linear_1866_158055)"/>
<path d="M67.4023 96.381L66.5918 98.7931H66.0234L67.0859 95.9493H67.4492L67.4023 96.381ZM68.0801 98.7931L67.2656 96.381L67.2168 95.9493H67.582L68.6504 98.7931H68.0801ZM68.043 97.7365V98.1603H66.5176V97.7365H68.043ZM69.4199 97.1115V98.7931H68.9043V96.6798H69.3926L69.4199 97.1115ZM70.0625 96.6661L70.0547 97.1466C70.026 97.1414 69.9935 97.1375 69.957 97.1349C69.9219 97.1323 69.8887 97.131 69.8574 97.131C69.778 97.131 69.7083 97.142 69.6484 97.1642C69.5885 97.185 69.5384 97.2156 69.498 97.256C69.459 97.2963 69.429 97.3458 69.4082 97.4044C69.3874 97.4617 69.3757 97.5268 69.373 97.5997L69.2617 97.5861C69.2617 97.4519 69.2754 97.3276 69.3027 97.213C69.3301 97.0984 69.3698 96.9982 69.4219 96.9122C69.474 96.8263 69.5391 96.7599 69.6172 96.713C69.6966 96.6648 69.7878 96.6407 69.8906 96.6407C69.9193 96.6407 69.9499 96.6434 69.9824 96.6486C70.0163 96.6525 70.043 96.6583 70.0625 96.6661ZM71.4434 96.6798V97.0509H70.2324V96.6798H71.4434ZM70.5566 96.1603H71.0742V98.1837C71.0742 98.2462 71.0827 98.2944 71.0996 98.3282C71.1165 98.3621 71.1419 98.3849 71.1758 98.3966C71.2096 98.4083 71.25 98.4142 71.2969 98.4142C71.3307 98.4142 71.362 98.4122 71.3906 98.4083C71.4193 98.4044 71.4434 98.4005 71.4629 98.3966L71.4648 98.7833C71.4219 98.7976 71.373 98.8094 71.3184 98.8185C71.265 98.8276 71.2044 98.8322 71.1367 98.8322C71.0208 98.8322 70.9193 98.8126 70.832 98.7736C70.7448 98.7332 70.6771 98.6687 70.6289 98.5802C70.5807 98.4904 70.5566 98.3719 70.5566 98.2247V96.1603ZM72.334 96.6798V98.7931H71.8164V96.6798H72.334ZM71.7812 96.1271C71.7812 96.0503 71.8073 95.9865 71.8594 95.9357C71.9128 95.8849 71.9844 95.8595 72.0742 95.8595C72.1641 95.8595 72.235 95.8849 72.2871 95.9357C72.3405 95.9865 72.3672 96.0503 72.3672 96.1271C72.3672 96.2026 72.3405 96.2657 72.2871 96.3165C72.235 96.3673 72.1641 96.3927 72.0742 96.3927C71.9844 96.3927 71.9128 96.3673 71.8594 96.3165C71.8073 96.2657 71.7812 96.2026 71.7812 96.1271ZM73.3418 95.7911V98.7931H72.8262V95.7911H73.3418ZM74.666 96.6798L73.7461 97.713L73.248 98.2189L73.084 97.8185L73.4688 97.3341L74.043 96.6798H74.666ZM74.1387 98.7931L73.4844 97.8087L73.8281 97.4747L74.7363 98.7931H74.1387ZM75.8496 98.8322C75.6895 98.8322 75.5456 98.8061 75.418 98.754C75.2904 98.7019 75.1816 98.6297 75.0918 98.5372C75.0033 98.4435 74.9349 98.3348 74.8867 98.2111C74.8398 98.0861 74.8164 97.9519 74.8164 97.8087V97.7306C74.8164 97.5678 74.8398 97.42 74.8867 97.2872C74.9336 97.1531 75 97.0379 75.0859 96.9415C75.1719 96.8452 75.2747 96.771 75.3945 96.7189C75.5143 96.6668 75.6465 96.6407 75.791 96.6407C75.9408 96.6407 76.0729 96.6661 76.1875 96.7169C76.3021 96.7664 76.3978 96.8367 76.4746 96.9279C76.5514 97.019 76.6094 97.1284 76.6484 97.256C76.6875 97.3823 76.707 97.5223 76.707 97.6759V97.8927H75.0508V97.5372H76.1992V97.4982C76.1966 97.4161 76.181 97.3413 76.1523 97.2736C76.1237 97.2045 76.0794 97.1499 76.0195 97.1095C75.9596 97.0678 75.8822 97.047 75.7871 97.047C75.7103 97.047 75.6432 97.0639 75.5859 97.0978C75.5299 97.1303 75.4831 97.1772 75.4453 97.2384C75.4089 97.2983 75.3815 97.3699 75.3633 97.4532C75.3451 97.5366 75.3359 97.629 75.3359 97.7306V97.8087C75.3359 97.8973 75.3477 97.9793 75.3711 98.0548C75.3958 98.1303 75.4316 98.1961 75.4785 98.2521C75.5267 98.3068 75.584 98.3497 75.6504 98.381C75.7181 98.4109 75.7949 98.4259 75.8809 98.4259C75.9889 98.4259 76.0866 98.4051 76.1738 98.3634C76.2624 98.3204 76.3392 98.2573 76.4043 98.174L76.6641 98.4435C76.6198 98.5086 76.5599 98.5711 76.4844 98.631C76.4102 98.6909 76.3203 98.7397 76.2148 98.7775C76.1094 98.8139 75.9876 98.8322 75.8496 98.8322ZM77.5996 95.7931V98.7931H77.082V95.7931H77.5996Z" fill="white"/>
<path d="M70.0332 104.942V107.793H69.5156V105.545L68.8301 105.772V105.354L69.9746 104.942H70.0332ZM72.916 107.387V107.793H70.9902V107.445L71.9141 106.447C72.0104 106.338 72.0866 106.243 72.1426 106.162C72.1986 106.082 72.2383 106.009 72.2617 105.943C72.2865 105.877 72.2988 105.814 72.2988 105.754C72.2988 105.667 72.2832 105.591 72.252 105.526C72.2207 105.459 72.1751 105.408 72.1152 105.371C72.0566 105.335 71.9844 105.317 71.8984 105.317C71.8034 105.317 71.722 105.339 71.6543 105.383C71.5879 105.426 71.5371 105.486 71.502 105.563C71.4681 105.639 71.4512 105.727 71.4512 105.826H70.9336C70.9336 105.658 70.9727 105.505 71.0508 105.367C71.1289 105.228 71.2409 105.117 71.3867 105.033C71.5326 104.95 71.7057 104.908 71.9062 104.908C72.1016 104.908 72.2669 104.941 72.4023 105.006C72.5378 105.07 72.6406 105.161 72.7109 105.279C72.7812 105.398 72.8164 105.539 72.8164 105.703C72.8164 105.794 72.8014 105.884 72.7715 105.973C72.7415 106.061 72.6992 106.149 72.6445 106.236C72.5911 106.322 72.5273 106.41 72.4531 106.498C72.3789 106.587 72.2962 106.677 72.2051 106.77L71.6504 107.387H72.916ZM75.25 106.756V107.162H73.2012L73.1797 106.85L74.3848 104.949H74.7969L74.3516 105.705L73.7051 106.756H75.25ZM74.9121 104.949V107.793H74.3945V104.949H74.9121Z" fill="white"/>
<path d="M19 147.793C19 146.689 19.8954 145.793 21 145.793C22.1046 145.793 23 146.689 23 147.793V158.793H19V147.793Z" fill="url(#paint16_linear_1866_158055)"/>
<path d="M21.3164 162.93V160.949H21.8535V162.93C21.8535 163.119 21.8125 163.281 21.7305 163.416C21.6484 163.55 21.5365 163.653 21.3945 163.725C21.2526 163.796 21.0924 163.832 20.9141 163.832C20.7305 163.832 20.5677 163.802 20.4258 163.74C20.2839 163.678 20.1725 163.583 20.0918 163.455C20.0124 163.328 19.9727 163.165 19.9727 162.969H20.5117C20.5117 163.076 20.528 163.162 20.5605 163.227C20.5931 163.292 20.6393 163.339 20.6992 163.367C20.7604 163.396 20.832 163.41 20.9141 163.41C20.9935 163.41 21.0632 163.392 21.123 163.356C21.1842 163.318 21.2318 163.263 21.2656 163.192C21.2995 163.12 21.3164 163.033 21.3164 162.93Z" fill="url(#paint17_linear_1866_158055)"/>
<path d="M24.8184 139.793C24.8184 138.689 25.7138 137.793 26.8184 137.793C27.9229 137.793 28.8184 138.689 28.8184 139.793V158.793H24.8184V139.793Z" fill="url(#paint18_linear_1866_158055)"/>
<path d="M26.5273 160.949V163.793H25.9902V160.949H26.5273ZM27.6738 162.178V162.602H26.3867V162.178H27.6738ZM27.8242 160.949V161.373H26.3867V160.949H27.8242Z" fill="url(#paint19_linear_1866_158055)"/>
<path d="M30.6362 133.793C30.6362 132.689 31.5317 131.793 32.6362 131.793C33.7408 131.793 34.6362 132.689 34.6362 133.793V158.793H30.6362V133.793Z" fill="url(#paint20_linear_1866_158055)"/>
<path d="M31.3921 160.949H31.8569L32.6343 163.09L33.4097 160.949H33.8765L32.8198 163.793H32.4468L31.3921 160.949ZM31.1577 160.949H31.6128L31.6948 162.916V163.793H31.1577V160.949ZM33.6538 160.949H34.1108V163.793H33.5737V162.916L33.6538 160.949Z" fill="url(#paint21_linear_1866_158055)"/>
<path d="M36.4546 143.793C36.4546 142.689 37.35 141.793 38.4546 141.793C39.5592 141.793 40.4546 142.689 40.4546 143.793V158.793H36.4546V143.793Z" fill="url(#paint22_linear_1866_158055)"/>
<path d="M38.521 161.381L37.7104 163.793H37.1421L38.2046 160.949H38.5679L38.521 161.381ZM39.1987 163.793L38.3843 161.381L38.3354 160.949H38.7007L39.769 163.793H39.1987ZM39.1616 162.736V163.16H37.6362V162.736H39.1616Z" fill="url(#paint23_linear_1866_158055)"/>
<path d="M42.2729 129.793C42.2729 128.689 43.1684 127.793 44.2729 127.793C45.3775 127.793 46.2729 128.689 46.2729 129.793V158.793H42.2729V129.793Z" fill="url(#paint24_linear_1866_158055)"/>
<path d="M43.0288 160.949H43.4937L44.271 163.09L45.0464 160.949H45.5132L44.4565 163.793H44.0835L43.0288 160.949ZM42.7944 160.949H43.2495L43.3315 162.916V163.793H42.7944V160.949ZM45.2905 160.949H45.7476V163.793H45.2104V162.916L45.2905 160.949Z" fill="url(#paint25_linear_1866_158055)"/>
<path d="M48.0908 136.793C48.0908 135.689 48.9863 134.793 50.0908 134.793C51.1954 134.793 52.0908 135.689 52.0908 136.793V158.793H48.0908V136.793Z" fill="url(#paint26_linear_1866_158055)"/>
<path d="M50.4072 162.93V160.949H50.9443V162.93C50.9443 163.119 50.9033 163.281 50.8213 163.416C50.7393 163.55 50.6273 163.653 50.4854 163.725C50.3434 163.796 50.1833 163.832 50.0049 163.832C49.8213 163.832 49.6585 163.802 49.5166 163.74C49.3747 163.678 49.2633 163.583 49.1826 163.455C49.1032 163.328 49.0635 163.165 49.0635 162.969H49.6025C49.6025 163.076 49.6188 163.162 49.6514 163.227C49.6839 163.292 49.7301 163.339 49.79 163.367C49.8512 163.396 49.9229 163.41 50.0049 163.41C50.0843 163.41 50.154 163.392 50.2139 163.356C50.2751 163.318 50.3226 163.263 50.3564 163.192C50.3903 163.12 50.4072 163.033 50.4072 162.93Z" fill="url(#paint27_linear_1866_158055)"/>
<path d="M53.9092 151.793C53.9092 150.689 54.8046 149.793 55.9092 149.793C57.0137 149.793 57.9092 150.689 57.9092 151.793V158.793H53.9092V151.793Z" fill="url(#paint28_linear_1866_158055)"/>
<path d="M56.2256 162.93V160.949H56.7627V162.93C56.7627 163.119 56.7217 163.281 56.6396 163.416C56.5576 163.55 56.4456 163.653 56.3037 163.725C56.1618 163.796 56.0016 163.832 55.8232 163.832C55.6396 163.832 55.4769 163.802 55.335 163.74C55.193 163.678 55.0817 163.583 55.001 163.455C54.9215 163.328 54.8818 163.165 54.8818 162.969H55.4209C55.4209 163.076 55.4372 163.162 55.4697 163.227C55.5023 163.292 55.5485 163.339 55.6084 163.367C55.6696 163.396 55.7412 163.41 55.8232 163.41C55.9027 163.41 55.9723 163.392 56.0322 163.356C56.0934 163.318 56.141 163.263 56.1748 163.192C56.2087 163.12 56.2256 163.033 56.2256 162.93Z" fill="url(#paint29_linear_1866_158055)"/>
<path d="M59.7271 144.793C59.7271 143.689 60.6225 142.793 61.7271 142.793C62.8316 142.793 63.7271 143.689 63.7271 144.793V158.793H59.7271V144.793Z" fill="url(#paint30_linear_1866_158055)"/>
<path d="M61.7935 161.381L60.9829 163.793H60.4146L61.4771 160.949H61.8403L61.7935 161.381ZM62.4712 163.793L61.6567 161.381L61.6079 160.949H61.9731L63.0415 163.793H62.4712ZM62.4341 162.736V163.16H60.9087V162.736H62.4341Z" fill="url(#paint31_linear_1866_158055)"/>
<path d="M65.5454 139.793C65.5454 138.689 66.4408 137.793 67.5454 137.793C68.65 137.793 69.5454 138.689 69.5454 139.793V158.793H65.5454V139.793Z" fill="url(#paint32_linear_1866_158055)"/>
<path d="M68.0845 163.055C68.0845 163 68.076 162.951 68.0591 162.908C68.0435 162.864 68.0142 162.824 67.9712 162.789C67.9295 162.753 67.8703 162.718 67.7935 162.684C67.7179 162.649 67.6203 162.612 67.5005 162.574C67.3677 162.533 67.244 162.486 67.1294 162.434C67.0148 162.382 66.9139 162.321 66.8267 162.252C66.7407 162.183 66.6737 162.104 66.6255 162.014C66.5773 161.923 66.5532 161.817 66.5532 161.697C66.5532 161.58 66.578 161.473 66.6274 161.377C66.6782 161.281 66.7498 161.198 66.8423 161.129C66.9347 161.059 67.0435 161.005 67.1685 160.967C67.2948 160.929 67.4341 160.91 67.5864 160.91C67.7974 160.91 67.9797 160.949 68.1333 161.026C68.2882 161.102 68.408 161.207 68.4927 161.338C68.5773 161.47 68.6196 161.617 68.6196 161.781H68.0845C68.0845 161.693 68.0656 161.615 68.0278 161.547C67.9914 161.479 67.9354 161.426 67.8599 161.387C67.7856 161.348 67.6919 161.328 67.5786 161.328C67.4692 161.328 67.3781 161.345 67.3052 161.377C67.2336 161.41 67.1795 161.454 67.1431 161.51C67.1079 161.566 67.0903 161.628 67.0903 161.697C67.0903 161.749 67.1027 161.796 67.1274 161.838C67.1522 161.878 67.1893 161.917 67.2388 161.953C67.2882 161.988 67.3494 162.022 67.4224 162.053C67.4966 162.083 67.5825 162.113 67.6802 162.143C67.8364 162.19 67.9731 162.242 68.0903 162.299C68.2088 162.356 68.3071 162.421 68.3853 162.494C68.4647 162.567 68.5239 162.649 68.563 162.74C68.6034 162.832 68.6235 162.935 68.6235 163.051C68.6235 163.173 68.5994 163.283 68.5513 163.379C68.5031 163.475 68.4341 163.557 68.3442 163.625C68.2544 163.693 68.1463 163.744 68.02 163.779C67.895 163.815 67.755 163.832 67.6001 163.832C67.4621 163.832 67.3254 163.814 67.1899 163.777C67.0558 163.74 66.9341 163.684 66.8247 163.609C66.7153 163.534 66.6281 163.439 66.563 163.324C66.4979 163.208 66.4653 163.073 66.4653 162.918H67.0044C67.0044 163.008 67.0187 163.085 67.0474 163.149C67.0773 163.211 67.119 163.262 67.1724 163.303C67.2271 163.342 67.2909 163.371 67.3638 163.389C67.4367 163.407 67.5155 163.416 67.6001 163.416C67.7095 163.416 67.7993 163.401 67.8696 163.371C67.9412 163.34 67.9946 163.297 68.0298 163.242C68.0662 163.188 68.0845 163.125 68.0845 163.055Z" fill="url(#paint33_linear_1866_158055)"/>
<path d="M71.3638 146.793C71.3638 145.689 72.2592 144.793 73.3638 144.793C74.4683 144.793 75.3638 145.689 75.3638 146.793V158.793H71.3638V146.793Z" fill="url(#paint34_linear_1866_158055)"/>
<path d="M74.5591 162.299V162.445C74.5591 162.66 74.5304 162.854 74.4731 163.026C74.4159 163.196 74.3345 163.341 74.229 163.461C74.1235 163.581 73.9979 163.673 73.8521 163.736C73.7062 163.8 73.5441 163.832 73.3657 163.832C73.1899 163.832 73.0285 163.8 72.8813 163.736C72.7355 163.673 72.6092 163.581 72.5024 163.461C72.3957 163.341 72.313 163.196 72.2544 163.026C72.1958 162.854 72.1665 162.66 72.1665 162.445V162.299C72.1665 162.083 72.1958 161.889 72.2544 161.719C72.313 161.548 72.395 161.403 72.5005 161.283C72.606 161.162 72.7316 161.07 72.8774 161.006C73.0246 160.942 73.186 160.91 73.3618 160.91C73.5402 160.91 73.7023 160.942 73.8481 161.006C73.994 161.07 74.1196 161.162 74.2251 161.283C74.3319 161.403 74.4139 161.548 74.4712 161.719C74.5298 161.889 74.5591 162.083 74.5591 162.299ZM74.0161 162.445V162.295C74.0161 162.14 74.0018 162.004 73.9731 161.887C73.9445 161.768 73.9022 161.669 73.8462 161.588C73.7902 161.507 73.7212 161.447 73.6392 161.406C73.5571 161.365 73.4647 161.344 73.3618 161.344C73.2576 161.344 73.1652 161.365 73.0845 161.406C73.005 161.447 72.9373 161.507 72.8813 161.588C72.8254 161.669 72.7824 161.768 72.7524 161.887C72.7238 162.004 72.7095 162.14 72.7095 162.295V162.445C72.7095 162.599 72.7238 162.735 72.7524 162.854C72.7824 162.972 72.8254 163.072 72.8813 163.154C72.9386 163.235 73.0076 163.296 73.0884 163.338C73.1691 163.38 73.2616 163.401 73.3657 163.401C73.4699 163.401 73.5623 163.38 73.6431 163.338C73.7238 163.296 73.7915 163.235 73.8462 163.154C73.9022 163.072 73.9445 162.972 73.9731 162.854C74.0018 162.735 74.0161 162.599 74.0161 162.445Z" fill="url(#paint35_linear_1866_158055)"/>
<path d="M77.1816 142.793C77.1816 141.689 78.0771 140.793 79.1816 140.793C80.2862 140.793 81.1816 141.689 81.1816 142.793V158.793H77.1816V142.793Z" fill="url(#paint36_linear_1866_158055)"/>
<path d="M80.3223 160.949V163.793H79.7832L78.5742 161.82V163.793H78.0371V160.949H78.5742L79.7871 162.924V160.949H80.3223Z" fill="url(#paint37_linear_1866_158055)"/>
<path d="M83 144.793C83 143.689 83.8954 142.793 85 142.793C86.1046 142.793 87 143.689 87 144.793V158.793H83V144.793Z" fill="url(#paint38_linear_1866_158055)"/>
<path d="M84.8184 163.793H84.2051L84.209 163.371H84.8184C84.9837 163.371 85.1224 163.335 85.2344 163.262C85.3464 163.188 85.431 163.082 85.4883 162.943C85.5456 162.804 85.5742 162.637 85.5742 162.443V162.297C85.5742 162.147 85.5579 162.015 85.5254 161.901C85.4928 161.786 85.4447 161.69 85.3809 161.611C85.3184 161.533 85.2409 161.474 85.1484 161.434C85.056 161.393 84.9499 161.373 84.8301 161.373H84.1934V160.949H84.8301C85.0202 160.949 85.1934 160.981 85.3496 161.045C85.5072 161.109 85.6432 161.201 85.7578 161.32C85.8737 161.439 85.9622 161.581 86.0234 161.746C86.0859 161.912 86.1172 162.096 86.1172 162.301V162.443C86.1172 162.647 86.0859 162.832 86.0234 162.998C85.9622 163.164 85.8737 163.305 85.7578 163.424C85.6432 163.542 85.5065 163.634 85.3477 163.697C85.1888 163.761 85.0124 163.793 84.8184 163.793ZM84.5059 160.949V163.793H83.9688V160.949H84.5059Z" fill="url(#paint39_linear_1866_158055)"/>
<ellipse cx="53" cy="188.793" rx="45" ry="6" fill="url(#paint40_linear_1866_158055)"/>
<defs>
<linearGradient id="paint0_linear_1866_158055" x1="53" y1="0.79309" x2="53" y2="176.793" gradientUnits="userSpaceOnUse">
<stop offset="0.000134836" stop-color="#DADADA"/>
<stop offset="1" stop-color="#F3F3F3"/>
</linearGradient>
<linearGradient id="paint1_linear_1866_158055" x1="53.06" y1="45.6965" x2="53.06" y2="63.9929" gradientUnits="userSpaceOnUse">
<stop offset="0.000134836" stop-color="#3C3C3C"/>
<stop offset="1" stop-color="#6E6E6E"/>
</linearGradient>
<linearGradient id="paint2_linear_1866_158055" x1="70.25" y1="38.0431" x2="35.75" y2="72.5431" gradientUnits="userSpaceOnUse">
<stop offset="0.000134836" stop-color="#3C3C3C"/>
<stop offset="1" stop-color="#6E6E6E"/>
</linearGradient>
<linearGradient id="paint3_linear_1866_158055" x1="39.3378" y1="65.0094" x2="39.3378" y2="67.0423" gradientUnits="userSpaceOnUse">
<stop offset="0.000134836" stop-color="#3C3C3C"/>
<stop offset="1" stop-color="#6E6E6E"/>
</linearGradient>
<linearGradient id="paint4_linear_1866_158055" x1="35.7801" y1="57.8941" x2="35.7801" y2="59.9271" gradientUnits="userSpaceOnUse">
<stop offset="0.000134836" stop-color="#3C3C3C"/>
<stop offset="1" stop-color="#6E6E6E"/>
</linearGradient>
<linearGradient id="paint5_linear_1866_158055" x1="69.8319" y1="57.8941" x2="69.8319" y2="59.9271" gradientUnits="userSpaceOnUse">
<stop offset="0.000134836" stop-color="#3C3C3C"/>
<stop offset="1" stop-color="#6E6E6E"/>
</linearGradient>
<linearGradient id="paint6_linear_1866_158055" x1="36.2884" y1="50.7789" x2="36.2884" y2="52.8118" gradientUnits="userSpaceOnUse">
<stop offset="0.000134836" stop-color="#3C3C3C"/>
<stop offset="1" stop-color="#6E6E6E"/>
</linearGradient>
<linearGradient id="paint7_linear_1866_158055" x1="45.4364" y1="39.5977" x2="45.4364" y2="41.6307" gradientUnits="userSpaceOnUse">
<stop offset="0.000134836" stop-color="#3C3C3C"/>
<stop offset="1" stop-color="#6E6E6E"/>
</linearGradient>
<linearGradient id="paint8_linear_1866_158055" x1="39.3378" y1="43.6636" x2="39.3378" y2="45.6965" gradientUnits="userSpaceOnUse">
<stop offset="0.000134836" stop-color="#3C3C3C"/>
<stop offset="1" stop-color="#6E6E6E"/>
</linearGradient>
<linearGradient id="paint9_linear_1866_158055" x1="66.2743" y1="43.6636" x2="66.2743" y2="45.6965" gradientUnits="userSpaceOnUse">
<stop offset="0.000134836" stop-color="#3C3C3C"/>
<stop offset="1" stop-color="#6E6E6E"/>
</linearGradient>
<linearGradient id="paint10_linear_1866_158055" x1="60.6835" y1="39.5977" x2="60.6835" y2="41.6307" gradientUnits="userSpaceOnUse">
<stop offset="0.000134836" stop-color="#3C3C3C"/>
<stop offset="1" stop-color="#6E6E6E"/>
</linearGradient>
<linearGradient id="paint11_linear_1866_158055" x1="69.8319" y1="50.7789" x2="69.8319" y2="52.8118" gradientUnits="userSpaceOnUse">
<stop offset="0.000134836" stop-color="#3C3C3C"/>
<stop offset="1" stop-color="#6E6E6E"/>
</linearGradient>
<linearGradient id="paint12_linear_1866_158055" x1="66.7826" y1="65.0094" x2="66.7826" y2="67.0423" gradientUnits="userSpaceOnUse">
<stop offset="0.000134836" stop-color="#3C3C3C"/>
<stop offset="1" stop-color="#6E6E6E"/>
</linearGradient>
<linearGradient id="paint13_linear_1866_158055" x1="53.0599" y1="38.073" x2="53.0599" y2="40.106" gradientUnits="userSpaceOnUse">
<stop offset="0.000134836" stop-color="#3C3C3C"/>
<stop offset="1" stop-color="#6E6E6E"/>
</linearGradient>
<linearGradient id="paint14_linear_1866_158055" x1="34" y1="91.7931" x2="34" y2="111.793" gradientUnits="userSpaceOnUse">
<stop offset="0.000134836" stop-color="#3C3C3C"/>
<stop offset="1" stop-color="#6E6E6E"/>
</linearGradient>
<linearGradient id="paint15_linear_1866_158055" x1="72" y1="91.7931" x2="72" y2="111.793" gradientUnits="userSpaceOnUse">
<stop offset="0.000134836" stop-color="#3C3C3C"/>
<stop offset="1" stop-color="#6E6E6E"/>
</linearGradient>
<linearGradient id="paint16_linear_1866_158055" x1="21" y1="145.793" x2="21" y2="158.793" gradientUnits="userSpaceOnUse">
<stop offset="0.000134836" stop-color="#3C3C3C"/>
<stop offset="1" stop-color="#6E6E6E"/>
</linearGradient>
<linearGradient id="paint17_linear_1866_158055" x1="21" y1="159.793" x2="21" y2="164.793" gradientUnits="userSpaceOnUse">
<stop offset="0.000134836" stop-color="#3C3C3C"/>
<stop offset="1" stop-color="#6E6E6E"/>
</linearGradient>
<linearGradient id="paint18_linear_1866_158055" x1="26.8184" y1="137.793" x2="26.8184" y2="158.793" gradientUnits="userSpaceOnUse">
<stop offset="0.000134836" stop-color="#3C3C3C"/>
<stop offset="1" stop-color="#6E6E6E"/>
</linearGradient>
<linearGradient id="paint19_linear_1866_158055" x1="26.8184" y1="159.793" x2="26.8184" y2="164.793" gradientUnits="userSpaceOnUse">
<stop offset="0.000134836" stop-color="#3C3C3C"/>
<stop offset="1" stop-color="#6E6E6E"/>
</linearGradient>
<linearGradient id="paint20_linear_1866_158055" x1="32.6362" y1="131.793" x2="32.6363" y2="158.793" gradientUnits="userSpaceOnUse">
<stop offset="0.000134836" stop-color="#3C3C3C"/>
<stop offset="1" stop-color="#6E6E6E"/>
</linearGradient>
<linearGradient id="paint21_linear_1866_158055" x1="32.6362" y1="159.793" x2="32.6362" y2="164.793" gradientUnits="userSpaceOnUse">
<stop offset="0.000134836" stop-color="#3C3C3C"/>
<stop offset="1" stop-color="#6E6E6E"/>
</linearGradient>
<linearGradient id="paint22_linear_1866_158055" x1="38.4546" y1="141.793" x2="38.4546" y2="158.793" gradientUnits="userSpaceOnUse">
<stop offset="0.000134836" stop-color="#3C3C3C"/>
<stop offset="1" stop-color="#6E6E6E"/>
</linearGradient>
<linearGradient id="paint23_linear_1866_158055" x1="38.4546" y1="159.793" x2="38.4546" y2="164.793" gradientUnits="userSpaceOnUse">
<stop offset="0.000134836" stop-color="#3C3C3C"/>
<stop offset="1" stop-color="#6E6E6E"/>
</linearGradient>
<linearGradient id="paint24_linear_1866_158055" x1="44.2729" y1="127.793" x2="44.273" y2="158.793" gradientUnits="userSpaceOnUse">
<stop offset="0.000134836" stop-color="#3C3C3C"/>
<stop offset="1" stop-color="#6E6E6E"/>
</linearGradient>
<linearGradient id="paint25_linear_1866_158055" x1="44.2729" y1="159.793" x2="44.2729" y2="164.793" gradientUnits="userSpaceOnUse">
<stop offset="0.000134836" stop-color="#3C3C3C"/>
<stop offset="1" stop-color="#6E6E6E"/>
</linearGradient>
<linearGradient id="paint26_linear_1866_158055" x1="50.0908" y1="134.793" x2="50.0908" y2="158.793" gradientUnits="userSpaceOnUse">
<stop offset="0.000134836" stop-color="#3C3C3C"/>
<stop offset="1" stop-color="#6E6E6E"/>
</linearGradient>
<linearGradient id="paint27_linear_1866_158055" x1="50.0908" y1="159.793" x2="50.0908" y2="164.793" gradientUnits="userSpaceOnUse">
<stop offset="0.000134836" stop-color="#3C3C3C"/>
<stop offset="1" stop-color="#6E6E6E"/>
</linearGradient>
<linearGradient id="paint28_linear_1866_158055" x1="55.9092" y1="149.793" x2="55.9092" y2="158.793" gradientUnits="userSpaceOnUse">
<stop offset="0.000134836" stop-color="#3C3C3C"/>
<stop offset="1" stop-color="#6E6E6E"/>
</linearGradient>
<linearGradient id="paint29_linear_1866_158055" x1="55.9092" y1="159.793" x2="55.9092" y2="164.793" gradientUnits="userSpaceOnUse">
<stop offset="0.000134836" stop-color="#3C3C3C"/>
<stop offset="1" stop-color="#6E6E6E"/>
</linearGradient>
<linearGradient id="paint30_linear_1866_158055" x1="61.7271" y1="142.793" x2="61.7271" y2="158.793" gradientUnits="userSpaceOnUse">
<stop offset="0.000134836" stop-color="#3C3C3C"/>
<stop offset="1" stop-color="#6E6E6E"/>
</linearGradient>
<linearGradient id="paint31_linear_1866_158055" x1="61.7271" y1="159.793" x2="61.7271" y2="164.793" gradientUnits="userSpaceOnUse">
<stop offset="0.000134836" stop-color="#3C3C3C"/>
<stop offset="1" stop-color="#6E6E6E"/>
</linearGradient>
<linearGradient id="paint32_linear_1866_158055" x1="67.5454" y1="137.793" x2="67.5454" y2="158.793" gradientUnits="userSpaceOnUse">
<stop offset="0.000134836" stop-color="#3C3C3C"/>
<stop offset="1" stop-color="#6E6E6E"/>
</linearGradient>
<linearGradient id="paint33_linear_1866_158055" x1="67.5454" y1="159.793" x2="67.5454" y2="164.793" gradientUnits="userSpaceOnUse">
<stop offset="0.000134836" stop-color="#3C3C3C"/>
<stop offset="1" stop-color="#6E6E6E"/>
</linearGradient>
<linearGradient id="paint34_linear_1866_158055" x1="73.3638" y1="144.793" x2="73.3638" y2="158.793" gradientUnits="userSpaceOnUse">
<stop offset="0.000134836" stop-color="#3C3C3C"/>
<stop offset="1" stop-color="#6E6E6E"/>
</linearGradient>
<linearGradient id="paint35_linear_1866_158055" x1="73.3638" y1="159.793" x2="73.3638" y2="164.793" gradientUnits="userSpaceOnUse">
<stop offset="0.000134836" stop-color="#3C3C3C"/>
<stop offset="1" stop-color="#6E6E6E"/>
</linearGradient>
<linearGradient id="paint36_linear_1866_158055" x1="79.1816" y1="140.793" x2="79.1817" y2="158.793" gradientUnits="userSpaceOnUse">
<stop offset="0.000134836" stop-color="#3C3C3C"/>
<stop offset="1" stop-color="#6E6E6E"/>
</linearGradient>
<linearGradient id="paint37_linear_1866_158055" x1="79.1816" y1="159.793" x2="79.1816" y2="164.793" gradientUnits="userSpaceOnUse">
<stop offset="0.000134836" stop-color="#3C3C3C"/>
<stop offset="1" stop-color="#6E6E6E"/>
</linearGradient>
<linearGradient id="paint38_linear_1866_158055" x1="85" y1="142.793" x2="85" y2="158.793" gradientUnits="userSpaceOnUse">
<stop offset="0.000134836" stop-color="#3C3C3C"/>
<stop offset="1" stop-color="#6E6E6E"/>
</linearGradient>
<linearGradient id="paint39_linear_1866_158055" x1="85" y1="159.793" x2="85" y2="164.793" gradientUnits="userSpaceOnUse">
<stop offset="0.000134836" stop-color="#3C3C3C"/>
<stop offset="1" stop-color="#6E6E6E"/>
</linearGradient>
<linearGradient id="paint40_linear_1866_158055" x1="53" y1="182.793" x2="53" y2="194.793" gradientUnits="userSpaceOnUse">
<stop offset="0.000134836" stop-color="#3C3C3C"/>
<stop offset="1" stop-color="#6E6E6E"/>
</linearGradient>
</defs>
</svg>
