<svg width="106" height="196" viewBox="0 0 106 196" fill="none" xmlns="http://www.w3.org/2000/svg">
<rect y="0.793091" width="106" height="176" rx="8" fill="url(#paint0_linear_1866_122949)"/>
<rect width="90" height="160" transform="translate(8 8.79309)" fill="white"/>
<rect x="17" y="126.793" width="72" height="12" rx="2" fill="#F3F3F3"/>
<rect x="19" y="128.793" width="68" height="8" rx="2" fill="url(#paint1_linear_1866_122949)"/>
<rect x="17" y="139.793" width="72" height="12" rx="2" fill="#F3F3F3"/>
<rect x="19" y="141.793" width="68" height="8" rx="2" fill="url(#paint2_linear_1866_122949)"/>
<rect x="17" y="152.793" width="72" height="12" rx="2" fill="#F3F3F3"/>
<rect x="19" y="154.793" width="68" height="8" rx="2" fill="url(#paint3_linear_1866_122949)"/>
<path d="M28.4905 76.8104H78.4905V112.31C78.4905 114.243 76.9235 115.81 74.9905 115.81H31.9905C30.0575 115.81 28.4905 114.243 28.4905 112.31V76.8104Z" fill="white"/>
<rect x="31.9905" y="80.3104" width="10" height="10" rx="2" fill="#EAEAEA"/>
<rect x="42.9905" y="80.3104" width="10" height="10" rx="2" fill="#EAEAEA"/>
<rect x="53.9905" y="80.3104" width="10" height="10" rx="2" fill="#EAEAEA"/>
<rect x="64.9905" y="80.3104" width="10" height="10" rx="2" fill="#EAEAEA"/>
<rect x="31.9905" y="91.3104" width="10" height="10" rx="2" fill="#EAEAEA"/>
<rect x="42.9905" y="91.3104" width="10" height="10" rx="2" fill="#EAEAEA"/>
<rect x="53.9905" y="91.3104" width="10" height="10" rx="2" fill="url(#paint4_linear_1866_122949)"/>
<rect x="64.9905" y="91.3104" width="10" height="10" rx="2" fill="#EAEAEA"/>
<rect x="31.9905" y="102.31" width="10" height="10" rx="2" fill="#EAEAEA"/>
<rect x="42.9905" y="102.31" width="10" height="10" rx="2" fill="#EAEAEA"/>
<rect x="53.9905" y="102.31" width="10" height="10" rx="2" fill="#EAEAEA"/>
<rect x="64.9905" y="102.31" width="10" height="10" rx="2" fill="#EAEAEA"/>
<path d="M28.4905 76.8104H78.4905V112.31C78.4905 114.243 76.9235 115.81 74.9905 115.81H31.9905C30.0575 115.81 28.4905 114.243 28.4905 112.31V76.8104Z" stroke="#6E6E6E"/>
<mask id="path-21-inside-1_1866_122949" fill="white">
<path d="M27.9905 68.3104C27.9905 66.1012 29.7813 64.3104 31.9905 64.3104H74.9905C77.1996 64.3104 78.9905 66.1012 78.9905 68.3104V76.3104H27.9905V68.3104Z"/>
</mask>
<path d="M27.9905 68.3104C27.9905 66.1012 29.7813 64.3104 31.9905 64.3104H74.9905C77.1996 64.3104 78.9905 66.1012 78.9905 68.3104V76.3104H27.9905V68.3104Z" fill="url(#paint5_linear_1866_122949)"/>
<path d="M26.9905 68.3104C26.9905 65.5489 29.2291 63.3104 31.9905 63.3104H74.9905C77.7519 63.3104 79.9905 65.5489 79.9905 68.3104H77.9905C77.9905 66.6535 76.6473 65.3104 74.9905 65.3104H31.9905C30.3336 65.3104 28.9905 66.6535 28.9905 68.3104H26.9905ZM78.9905 76.3104H27.9905H78.9905ZM26.9905 76.3104V68.3104C26.9905 65.5489 29.2291 63.3104 31.9905 63.3104V65.3104C30.3336 65.3104 28.9905 66.6535 28.9905 68.3104V76.3104H26.9905ZM74.9905 63.3104C77.7519 63.3104 79.9905 65.5489 79.9905 68.3104V76.3104H77.9905V68.3104C77.9905 66.6535 76.6473 65.3104 74.9905 65.3104V63.3104Z" fill="url(#paint6_linear_1866_122949)" mask="url(#path-21-inside-1_1866_122949)"/>
<rect x="35.7405" y="60.0604" width="3.5" height="8.5" rx="1.75" fill="url(#paint7_linear_1866_122949)"/>
<rect x="35.7405" y="60.0604" width="3.5" height="8.5" rx="1.75" stroke="#F3F3F3" stroke-width="0.5"/>
<rect x="51.7405" y="60.0604" width="3.5" height="8.5" rx="1.75" fill="url(#paint8_linear_1866_122949)"/>
<rect x="51.7405" y="60.0604" width="3.5" height="8.5" rx="1.75" stroke="#F3F3F3" stroke-width="0.5"/>
<rect x="67.7405" y="60.0604" width="3.5" height="8.5" rx="1.75" fill="url(#paint9_linear_1866_122949)"/>
<rect x="67.7405" y="60.0604" width="3.5" height="8.5" rx="1.75" stroke="#F3F3F3" stroke-width="0.5"/>
<path d="M38.7956 42.7529C35.5964 43.6101 33.6957 46.9022 34.5529 50.1014C35.4101 53.3005 38.7022 55.2012 41.9014 54.344C45.1005 53.4868 47.0012 50.1947 46.144 46.9956C45.2868 43.7964 41.9947 41.8957 38.7956 42.7529ZM39.8876 44.5102L40.5224 43.7499C41.6642 43.7919 42.7489 44.2466 43.5796 45.0055L43.5616 45.8426L42.8507 46.3189L40.105 45.3215L39.8876 44.5102ZM37.7985 44.4798L38.7285 44.8207L38.9459 45.6321L37.0667 47.8687L36.2129 47.8117L35.7788 47.0957C36.1203 46.029 36.8323 45.0928 37.7985 44.4798ZM38.2906 52.274L37.6454 52.509C36.7268 51.8855 36.0211 50.9441 35.712 49.7908C35.6934 49.7213 35.6821 49.656 35.6693 49.5849L36.1355 49.0065L37.0098 49.0704L38.5299 51.3589L38.2906 52.274ZM42.976 52.5591C42.5585 52.8324 42.095 53.0498 41.5908 53.1849C41.0866 53.32 40.5765 53.3635 40.0782 53.3355L39.447 52.5791L39.6471 51.8422L42.6086 51.0487L43.1519 51.5926L42.976 52.5591ZM42.1299 49.9346L39.4988 50.6397L38.0921 48.5195L39.7956 46.4853L42.2939 47.3936L42.1299 49.9346ZM44.6696 50.6269L43.9934 50.746L43.3228 50.0747L43.495 47.3327L44.2276 46.8444L44.9205 47.1122C44.9434 47.1744 44.9663 47.2366 44.9849 47.3061C45.2939 48.4595 45.1535 49.6276 44.6696 50.6269Z" fill="url(#paint10_linear_1866_122949)"/>
<path d="M72.0707 46.2738L72.8488 42.4843C73.049 41.5097 72.4996 40.5376 71.5628 40.2022L67.298 38.6751C66.3613 38.3396 65.3196 38.742 64.8558 39.6222L63.0515 43.0443C62.6884 43.7321 63.0176 44.5776 63.7473 44.8388C64.0673 44.9535 64.4141 44.9342 64.721 44.7892L66.1641 44.111L68.9885 45.1223L69.6684 46.5607C69.8134 46.8676 70.0739 47.1043 70.3893 47.2172C71.1236 47.4801 71.9147 47.0358 72.0707 46.2738ZM70.9608 46.2588C70.908 46.2877 70.83 46.3128 70.7311 46.2774C70.6605 46.2521 70.6047 46.2003 70.5745 46.1364L69.7163 44.3208L66.1105 43.0296L64.2949 43.8878C64.231 43.918 64.155 43.9227 64.0844 43.8974C63.9855 43.862 63.9412 43.793 63.9187 43.7372C63.8962 43.6813 63.8821 43.6019 63.9317 43.5081L65.7359 40.086C65.97 39.6547 66.4949 39.4496 66.9609 39.6165L71.2257 41.1436C71.6917 41.3105 71.9671 41.8021 71.8679 42.2871L71.0898 46.0766C71.0702 46.1758 71.009 46.2282 70.9608 46.2588Z" fill="url(#paint11_linear_1866_122949)"/>
<path d="M67.5126 40.3451L67.0418 40.1766L66.7047 41.118L65.7632 40.7809L65.5947 41.2517L66.5362 41.5888L66.199 42.5302L66.6698 42.6988L67.0069 41.7573L67.9483 42.0945L68.1169 41.6237L67.1754 41.2866L67.5126 40.3451Z" fill="url(#paint12_linear_1866_122949)"/>
<path d="M70.4356 44.0473C70.6956 44.1404 70.9818 44.0051 71.0749 43.7451C71.168 43.4851 71.0327 43.1989 70.7727 43.1058C70.5128 43.0127 70.2265 43.148 70.1334 43.408C70.0404 43.6679 70.1756 43.9542 70.4356 44.0473Z" fill="url(#paint13_linear_1866_122949)"/>
<path d="M69.9998 42.298C70.2598 42.391 70.546 42.2558 70.6391 41.9958C70.7322 41.7358 70.5969 41.4496 70.3369 41.3565C70.077 41.2634 69.7907 41.3987 69.6977 41.6587C69.6046 41.9186 69.7399 42.2049 69.9998 42.298Z" fill="url(#paint14_linear_1866_122949)"/>
<path d="M50.3326 35.6743L56.3087 31.2544L50.6984 28.2503L50.3326 35.6743ZM54.4432 31.3905L51.4341 33.6172L51.6193 29.8784L54.4432 31.3905Z" fill="url(#paint15_linear_1866_122949)"/>
<path d="M54.958 29.328L56.8239 25.8434C56.9875 25.538 57.3655 25.4236 57.671 25.5872L58.0388 25.7841L58.3926 25.1233L58.0248 24.9264C57.3578 24.5692 56.5203 24.8226 56.1631 25.4896L54.2972 28.9742L54.958 29.328Z" fill="url(#paint16_linear_1866_122949)"/>
<path d="M52.0007 27.2713L51.8038 27.639L52.4646 27.9929L52.6615 27.6251C53.0186 26.9581 52.7653 26.1206 52.0983 25.7634L51.7305 25.5665L51.3781 26.232L51.7459 26.429C52.0451 26.5892 52.1609 26.972 52.0007 27.2713Z" fill="url(#paint17_linear_1866_122949)"/>
<path d="M56.0747 28.6506L55.544 29.6418L56.2047 29.9956L56.7355 29.0045C56.899 28.699 57.2771 28.5846 57.5825 28.7482L58.5862 29.2856L58.94 28.6248L57.9364 28.0874C57.2646 27.7317 56.4319 27.9836 56.0747 28.6506Z" fill="url(#paint18_linear_1866_122949)"/>
<path d="M54.2488 26.0688L53.0505 28.3066L53.7113 28.6604L54.9096 26.4226C55.2668 25.7556 55.0134 24.9181 54.3464 24.5609L53.3552 24.0302L53.0014 24.6909L53.9926 25.2217C54.2932 25.3867 54.409 25.7695 54.2488 26.0688Z" fill="url(#paint19_linear_1866_122949)"/>
<ellipse cx="53" cy="189.2" rx="45" ry="6" fill="url(#paint20_linear_1866_122949)"/>
<defs>
<linearGradient id="paint0_linear_1866_122949" x1="53" y1="0.79309" x2="53" y2="176.793" gradientUnits="userSpaceOnUse">
<stop offset="0.000134836" stop-color="#DADADA"/>
<stop offset="1" stop-color="#F3F3F3"/>
</linearGradient>
<linearGradient id="paint1_linear_1866_122949" x1="87" y1="128.793" x2="78.6975" y2="144.85" gradientUnits="userSpaceOnUse">
<stop offset="0.000134836" stop-color="#B7B7B7"/>
<stop offset="1" stop-color="#DADADA"/>
</linearGradient>
<linearGradient id="paint2_linear_1866_122949" x1="87" y1="141.793" x2="78.6975" y2="157.85" gradientUnits="userSpaceOnUse">
<stop offset="0.000134836" stop-color="#B7B7B7"/>
<stop offset="1" stop-color="#DADADA"/>
</linearGradient>
<linearGradient id="paint3_linear_1866_122949" x1="87" y1="154.793" x2="78.6975" y2="170.85" gradientUnits="userSpaceOnUse">
<stop offset="0.000134836" stop-color="#B7B7B7"/>
<stop offset="1" stop-color="#DADADA"/>
</linearGradient>
<linearGradient id="paint4_linear_1866_122949" x1="53.9905" y1="91.3104" x2="65.3763" y2="93.6898" gradientUnits="userSpaceOnUse">
<stop offset="0.513296" stop-color="#AA1614"/>
<stop offset="0.963542" stop-color="#8E0000"/>
</linearGradient>
<linearGradient id="paint5_linear_1866_122949" x1="53.4905" y1="64.3104" x2="53.4905" y2="76.3104" gradientUnits="userSpaceOnUse">
<stop offset="0.000134836" stop-color="#3C3C3C"/>
<stop offset="1" stop-color="#6E6E6E"/>
</linearGradient>
<linearGradient id="paint6_linear_1866_122949" x1="53.4905" y1="64.3104" x2="53.4905" y2="76.3104" gradientUnits="userSpaceOnUse">
<stop offset="0.000134836" stop-color="#3C3C3C"/>
<stop offset="1" stop-color="#6E6E6E"/>
</linearGradient>
<linearGradient id="paint7_linear_1866_122949" x1="37.4905" y1="60.3104" x2="37.4905" y2="68.3104" gradientUnits="userSpaceOnUse">
<stop offset="0.000134836" stop-color="#3C3C3C"/>
<stop offset="1" stop-color="#6E6E6E"/>
</linearGradient>
<linearGradient id="paint8_linear_1866_122949" x1="53.4905" y1="60.3104" x2="53.4905" y2="68.3104" gradientUnits="userSpaceOnUse">
<stop offset="0.000134836" stop-color="#3C3C3C"/>
<stop offset="1" stop-color="#6E6E6E"/>
</linearGradient>
<linearGradient id="paint9_linear_1866_122949" x1="69.4905" y1="60.3104" x2="69.4905" y2="68.3104" gradientUnits="userSpaceOnUse">
<stop offset="0.000134836" stop-color="#3C3C3C"/>
<stop offset="1" stop-color="#6E6E6E"/>
</linearGradient>
<linearGradient id="paint10_linear_1866_122949" x1="38.7956" y1="42.7529" x2="41.9014" y2="54.344" gradientUnits="userSpaceOnUse">
<stop offset="0.000134836" stop-color="#3C3C3C"/>
<stop offset="1" stop-color="#6E6E6E"/>
</linearGradient>
<linearGradient id="paint11_linear_1866_122949" x1="69.4304" y1="39.4386" x2="67.0706" y2="46.0289" gradientUnits="userSpaceOnUse">
<stop offset="0.000134836" stop-color="#3C3C3C"/>
<stop offset="1" stop-color="#6E6E6E"/>
</linearGradient>
<linearGradient id="paint12_linear_1866_122949" x1="69.4304" y1="39.4386" x2="67.0706" y2="46.0289" gradientUnits="userSpaceOnUse">
<stop offset="0.000134836" stop-color="#3C3C3C"/>
<stop offset="1" stop-color="#6E6E6E"/>
</linearGradient>
<linearGradient id="paint13_linear_1866_122949" x1="69.4304" y1="39.4386" x2="67.0706" y2="46.0289" gradientUnits="userSpaceOnUse">
<stop offset="0.000134836" stop-color="#3C3C3C"/>
<stop offset="1" stop-color="#6E6E6E"/>
</linearGradient>
<linearGradient id="paint14_linear_1866_122949" x1="69.4304" y1="39.4386" x2="67.0706" y2="46.0289" gradientUnits="userSpaceOnUse">
<stop offset="0.000134836" stop-color="#3C3C3C"/>
<stop offset="1" stop-color="#6E6E6E"/>
</linearGradient>
<linearGradient id="paint15_linear_1866_122949" x1="52.5129" y1="24.285" x2="55.4868" y2="34.115" gradientUnits="userSpaceOnUse">
<stop offset="0.000134836" stop-color="#3C3C3C"/>
<stop offset="1" stop-color="#6E6E6E"/>
</linearGradient>
<linearGradient id="paint16_linear_1866_122949" x1="52.5129" y1="24.285" x2="55.4868" y2="34.115" gradientUnits="userSpaceOnUse">
<stop offset="0.000134836" stop-color="#3C3C3C"/>
<stop offset="1" stop-color="#6E6E6E"/>
</linearGradient>
<linearGradient id="paint17_linear_1866_122949" x1="52.5129" y1="24.285" x2="55.4868" y2="34.115" gradientUnits="userSpaceOnUse">
<stop offset="0.000134836" stop-color="#3C3C3C"/>
<stop offset="1" stop-color="#6E6E6E"/>
</linearGradient>
<linearGradient id="paint18_linear_1866_122949" x1="52.5129" y1="24.285" x2="55.4868" y2="34.115" gradientUnits="userSpaceOnUse">
<stop offset="0.000134836" stop-color="#3C3C3C"/>
<stop offset="1" stop-color="#6E6E6E"/>
</linearGradient>
<linearGradient id="paint19_linear_1866_122949" x1="52.5129" y1="24.285" x2="55.4868" y2="34.115" gradientUnits="userSpaceOnUse">
<stop offset="0.000134836" stop-color="#3C3C3C"/>
<stop offset="1" stop-color="#6E6E6E"/>
</linearGradient>
<linearGradient id="paint20_linear_1866_122949" x1="53" y1="183.2" x2="53" y2="195.2" gradientUnits="userSpaceOnUse">
<stop offset="0.000134836" stop-color="#3C3C3C"/>
<stop offset="1" stop-color="#6E6E6E"/>
</linearGradient>
</defs>
</svg>
