<svg width="106" height="196" viewBox="0 0 106 196" fill="none" xmlns="http://www.w3.org/2000/svg">
<rect y="0.793091" width="106" height="176" rx="8" fill="url(#paint0_linear_1866_181778)"/>
<rect width="90" height="160" transform="translate(8 8.79309)" fill="white"/>
<rect x="17" y="126.793" width="72" height="12" rx="2" fill="#F3F3F3"/>
<rect x="19" y="128.793" width="68" height="8" rx="2" fill="url(#paint1_linear_1866_181778)"/>
<path d="M79.0001 135.851L78.5167 135.411C76.8001 133.855 75.6667 132.828 75.6667 131.568C75.6667 130.541 76.4734 129.735 77.5001 129.735C78.0801 129.735 78.6367 130.005 79.0001 130.431C79.3634 130.005 79.9201 129.735 80.5001 129.735C81.5267 129.735 82.3334 130.541 82.3334 131.568C82.3334 132.828 81.2001 133.855 79.4834 135.415L79.0001 135.851Z" fill="url(#paint2_linear_1866_181778)"/>
<rect x="17" y="139.793" width="72" height="12" rx="2" fill="#F3F3F3"/>
<rect x="19" y="141.793" width="68" height="8" rx="2" fill="url(#paint3_linear_1866_181778)"/>
<path d="M79.0001 148.851L78.5167 148.411C76.8001 146.855 75.6667 145.828 75.6667 144.568C75.6667 143.541 76.4734 142.735 77.5001 142.735C78.0801 142.735 78.6367 143.005 79.0001 143.431C79.3634 143.005 79.9201 142.735 80.5001 142.735C81.5267 142.735 82.3334 143.541 82.3334 144.568C82.3334 145.828 81.2001 146.855 79.4834 148.415L79.0001 148.851Z" fill="url(#paint4_linear_1866_181778)"/>
<rect x="17" y="152.793" width="72" height="12" rx="2" fill="#F3F3F3"/>
<rect x="19" y="154.793" width="68" height="8" rx="2" fill="url(#paint5_linear_1866_181778)"/>
<path d="M79.0001 161.851L78.5167 161.411C76.8001 159.855 75.6667 158.828 75.6667 157.568C75.6667 156.541 76.4734 155.735 77.5001 155.735C78.0801 155.735 78.6367 156.005 79.0001 156.431C79.3634 156.005 79.9201 155.735 80.5001 155.735C81.5267 155.735 82.3334 156.541 82.3334 157.568C82.3334 158.828 81.2001 159.855 79.4834 161.415L79.0001 161.851Z" fill="url(#paint6_linear_1866_181778)"/>
<g clip-path="url(#clip0_1866_181778)">
<path d="M47.6686 51.8467L46.9663 51.4291C44.4737 49.9535 42.8283 48.9805 42.5123 47.4375C42.2548 46.1803 43.0403 44.9901 44.2976 44.7326C45.0078 44.5871 45.7572 44.7782 46.3092 45.2095C46.6471 44.5959 47.261 44.1256 47.9713 43.9802C49.2285 43.7227 50.4187 44.5082 50.6762 45.7654C50.9922 47.3084 49.8618 48.8499 48.1509 51.1908L47.6686 51.8467Z" fill="url(#paint7_linear_1866_181778)"/>
</g>
<g clip-path="url(#clip1_1866_181778)">
<path d="M69.1065 34.8974L68.7171 34.3724C67.3329 32.5138 66.4189 31.2878 66.662 30.0515C66.86 29.0441 67.8071 28.4082 68.8145 28.6062C69.3836 28.7181 69.8778 29.0904 70.152 29.5792C70.5908 29.2306 71.1891 29.0731 71.7582 29.1849C72.7656 29.383 73.4015 30.3301 73.2034 31.3375C72.9604 32.5738 71.6503 33.3626 69.6649 34.5621L69.1065 34.8974Z" fill="url(#paint8_linear_1866_181778)"/>
</g>
<g clip-path="url(#clip2_1866_181778)">
<path d="M62.1928 108.086L61.5414 106.953C59.2237 102.939 57.693 100.291 58.4632 97.892C59.0907 95.9369 61.1199 94.8938 63.075 95.5213C64.1795 95.8758 65.0745 96.7302 65.5056 97.7648C66.4583 97.1744 67.6834 97.0004 68.7879 97.3549C70.743 97.9825 71.7861 100.012 71.1586 101.967C70.3885 104.366 67.6027 105.629 63.3802 107.55L62.1928 108.086Z" fill="url(#paint9_linear_1866_181778)"/>
</g>
<g clip-path="url(#clip3_1866_181778)">
<path d="M60.4719 73.1158L59.9006 72.3191C57.8695 69.4981 56.5283 67.6373 56.9227 65.7889C57.2441 64.2828 58.6799 63.3519 60.186 63.6733C61.0369 63.8549 61.769 64.4252 62.1684 65.1648C62.835 64.6526 63.7361 64.4308 64.587 64.6124C66.0931 64.9337 67.0239 66.3696 66.7026 67.8757C66.3082 69.7241 64.3242 70.8754 61.3176 72.6266L60.4719 73.1158Z" fill="url(#paint10_linear_1866_181778)"/>
</g>
<g clip-path="url(#clip4_1866_181778)">
<path d="M39.7751 88.1943L38.7183 87.7569C34.9681 86.2134 32.4929 85.1961 31.7449 83.1218C31.1354 81.4317 31.9845 79.6249 33.6746 79.0154C34.6294 78.671 35.7061 78.785 36.5575 79.2717C36.9023 78.3537 37.6585 77.5787 38.6133 77.2344C40.3034 76.6249 42.1102 77.474 42.7197 79.1641C43.4677 81.2383 42.2115 83.6013 40.3116 87.1885L39.7751 88.1943Z" fill="url(#paint11_linear_1866_181778)"/>
</g>
<ellipse cx="52.9905" cy="189.31" rx="45" ry="6" fill="url(#paint12_linear_1866_181778)"/>
<defs>
<linearGradient id="paint0_linear_1866_181778" x1="53" y1="0.79309" x2="53" y2="176.793" gradientUnits="userSpaceOnUse">
<stop offset="0.000134836" stop-color="#DADADA"/>
<stop offset="1" stop-color="#F3F3F3"/>
</linearGradient>
<linearGradient id="paint1_linear_1866_181778" x1="87" y1="128.793" x2="78.6975" y2="144.85" gradientUnits="userSpaceOnUse">
<stop offset="0.000134836" stop-color="#B7B7B7"/>
<stop offset="1" stop-color="#DADADA"/>
</linearGradient>
<linearGradient id="paint2_linear_1866_181778" x1="75.6667" y1="129.735" x2="83.198" y2="131.45" gradientUnits="userSpaceOnUse">
<stop offset="0.513296" stop-color="#DE192C"/>
<stop offset="0.963542" stop-color="#C30018"/>
</linearGradient>
<linearGradient id="paint3_linear_1866_181778" x1="87" y1="141.793" x2="78.6975" y2="157.85" gradientUnits="userSpaceOnUse">
<stop offset="0.000134836" stop-color="#B7B7B7"/>
<stop offset="1" stop-color="#DADADA"/>
</linearGradient>
<linearGradient id="paint4_linear_1866_181778" x1="75.6667" y1="142.735" x2="83.198" y2="144.45" gradientUnits="userSpaceOnUse">
<stop offset="0.513296" stop-color="#DE192C"/>
<stop offset="0.963542" stop-color="#C30018"/>
</linearGradient>
<linearGradient id="paint5_linear_1866_181778" x1="87" y1="154.793" x2="78.6975" y2="170.85" gradientUnits="userSpaceOnUse">
<stop offset="0.000134836" stop-color="#B7B7B7"/>
<stop offset="1" stop-color="#DADADA"/>
</linearGradient>
<linearGradient id="paint6_linear_1866_181778" x1="75.6667" y1="155.735" x2="83.198" y2="157.45" gradientUnits="userSpaceOnUse">
<stop offset="0.513296" stop-color="#DE192C"/>
<stop offset="0.963542" stop-color="#C30018"/>
</linearGradient>
<linearGradient id="paint7_linear_1866_181778" x1="42.0525" y1="45.1924" x2="51.7054" y2="45.4042" gradientUnits="userSpaceOnUse">
<stop offset="0.513296" stop-color="#DE192C"/>
<stop offset="0.963542" stop-color="#C30018"/>
</linearGradient>
<linearGradient id="paint8_linear_1866_181778" x1="67.0156" y1="28.2526" x2="74.0746" y2="31.3886" gradientUnits="userSpaceOnUse">
<stop offset="0.513296" stop-color="#DE192C"/>
<stop offset="0.963542" stop-color="#C30018"/>
</linearGradient>
<linearGradient id="paint9_linear_1866_181778" x1="59.5837" y1="94.4007" x2="72.8772" y2="102.271" gradientUnits="userSpaceOnUse">
<stop offset="0.513296" stop-color="#DE192C"/>
<stop offset="0.963542" stop-color="#C30018"/>
</linearGradient>
<linearGradient id="paint10_linear_1866_181778" x1="57.4966" y1="63.0994" x2="68.0079" y2="67.9734" gradientUnits="userSpaceOnUse">
<stop offset="0.513296" stop-color="#DE192C"/>
<stop offset="0.963542" stop-color="#C30018"/>
</linearGradient>
<linearGradient id="paint11_linear_1866_181778" x1="30.6565" y1="80.1037" x2="44.0731" y2="78.4567" gradientUnits="userSpaceOnUse">
<stop offset="0.513296" stop-color="#DE192C"/>
<stop offset="0.963542" stop-color="#C30018"/>
</linearGradient>
<linearGradient id="paint12_linear_1866_181778" x1="52.9905" y1="183.31" x2="52.9905" y2="195.31" gradientUnits="userSpaceOnUse">
<stop offset="0.000134836" stop-color="#3C3C3C"/>
<stop offset="1" stop-color="#6E6E6E"/>
</linearGradient>
<clipPath id="clip0_1866_181778">
<rect width="10" height="10" fill="white" transform="translate(41 44.2065) rotate(-11.575)"/>
</clipPath>
<clipPath id="clip1_1866_181778">
<rect width="8" height="8" fill="white" transform="translate(66.5432 27.2) rotate(11.122)"/>
</clipPath>
<clipPath id="clip2_1866_181778">
<rect width="16" height="16" fill="white" transform="translate(58.8896 92.2) rotate(17.7948)"/>
</clipPath>
<clipPath id="clip3_1866_181778">
<rect width="12" height="12" fill="white" transform="translate(56.8135 61.5094) rotate(12.0449)"/>
</clipPath>
<clipPath id="clip4_1866_181778">
<rect width="14" height="14" fill="white" transform="translate(29 78.9493) rotate(-19.8303)"/>
</clipPath>
</defs>
</svg>
