<svg width="106" height="196" viewBox="0 0 106 196" fill="none" xmlns="http://www.w3.org/2000/svg">
<rect y="0.793091" width="106" height="176" rx="8" fill="url(#paint0_linear_1866_160567)"/>
<rect width="90" height="160" transform="translate(8 8.79309)" fill="white"/>
<circle cx="37.5" cy="62.7931" r="12.5" fill="white" stroke="url(#paint1_linear_1866_160567)"/>
<path d="M29.5 68.7931C29.5 65.4794 32.1863 62.7931 35.5 62.7931H39.5C42.8137 62.7931 45.5 65.4794 45.5 68.7931C45.5 69.8977 44.6046 70.7931 43.5 70.7931H31.5C30.3954 70.7931 29.5 69.8977 29.5 68.7931Z" fill="url(#paint2_linear_1866_160567)"/>
<circle cx="37.4999" cy="58.7931" r="3.55556" fill="white"/>
<circle cx="37.4999" cy="58.3486" r="3.55556" fill="url(#paint3_linear_1866_160567)"/>
<circle cx="78.5" cy="87.7931" r="10.5" fill="white" stroke="url(#paint4_linear_1866_160567)"/>
<path d="M71.5 92.7931C71.5 89.4794 74.1863 86.7931 77.5 86.7931H79.5C82.8137 86.7931 85.5 89.4794 85.5 92.7931C85.5 93.8977 84.6046 94.7931 83.5 94.7931H73.5C72.3954 94.7931 71.5 93.8977 71.5 92.7931Z" fill="url(#paint5_linear_1866_160567)"/>
<circle cx="78.4998" cy="84.2931" r="3.11111" fill="white"/>
<circle cx="78.4998" cy="83.9042" r="3.11111" fill="url(#paint6_linear_1866_160567)"/>
<circle cx="45.5" cy="108.793" r="9.5" fill="white" stroke="url(#paint7_linear_1866_160567)"/>
<path d="M39.5 113.043C39.5 110.144 41.8505 107.793 44.75 107.793H46.25C49.1495 107.793 51.5 110.144 51.5 113.043C51.5 114.01 50.7165 114.793 49.75 114.793H41.25C40.2835 114.793 39.5 114.01 39.5 113.043Z" fill="url(#paint8_linear_1866_160567)"/>
<circle cx="45.5002" cy="105.793" r="2.66667" fill="white"/>
<circle cx="45.5002" cy="105.46" r="2.66667" fill="url(#paint9_linear_1866_160567)"/>
<line x1="39.9936" y1="74.7131" x2="43.9325" y2="99.0031" stroke="url(#paint10_linear_1866_160567)"/>
<line x1="47.7495" y1="69.3598" x2="69.4136" y2="81.8331" stroke="url(#paint11_linear_1866_160567)"/>
<circle cx="82" cy="49.2931" r="4.5" fill="url(#paint12_linear_1866_160567)"/>
<line x1="49.367" y1="58.3111" x2="78.367" y2="50.3111" stroke="url(#paint13_linear_1866_160567)"/>
<circle cx="21" cy="92.2931" r="4.5" fill="url(#paint14_linear_1866_160567)"/>
<line x1="22.0528" y1="88.5695" x2="30.0528" y2="72.5695" stroke="url(#paint15_linear_1866_160567)"/>
<rect x="17" y="126.793" width="72" height="12" rx="2" fill="#F3F3F3"/>
<rect x="19" y="128.793" width="68" height="8" rx="2" fill="url(#paint16_linear_1866_160567)"/>
<rect x="17" y="139.793" width="72" height="12" rx="2" fill="#F3F3F3"/>
<rect x="19" y="141.793" width="68" height="8" rx="2" fill="url(#paint17_linear_1866_160567)"/>
<rect x="17" y="152.793" width="72" height="12" rx="2" fill="#F3F3F3"/>
<rect x="19" y="154.793" width="68" height="8" rx="2" fill="url(#paint18_linear_1866_160567)"/>
<ellipse cx="52.9907" cy="189.31" rx="45" ry="6" fill="url(#paint19_linear_1866_160567)"/>
<defs>
<linearGradient id="paint0_linear_1866_160567" x1="53" y1="0.79309" x2="53" y2="176.793" gradientUnits="userSpaceOnUse">
<stop offset="0.000134836" stop-color="#DADADA"/>
<stop offset="1" stop-color="#F3F3F3"/>
</linearGradient>
<linearGradient id="paint1_linear_1866_160567" x1="37.5" y1="49.7931" x2="37.5" y2="75.7931" gradientUnits="userSpaceOnUse">
<stop offset="0.000134836" stop-color="#3C3C3C"/>
<stop offset="1" stop-color="#6E6E6E"/>
</linearGradient>
<linearGradient id="paint2_linear_1866_160567" x1="37.5" y1="62.7931" x2="37.5" y2="70.7931" gradientUnits="userSpaceOnUse">
<stop offset="0.000134836" stop-color="#3C3C3C"/>
<stop offset="1" stop-color="#6E6E6E"/>
</linearGradient>
<linearGradient id="paint3_linear_1866_160567" x1="37.4999" y1="54.7931" x2="37.4999" y2="61.9042" gradientUnits="userSpaceOnUse">
<stop offset="0.000134836" stop-color="#3C3C3C"/>
<stop offset="1" stop-color="#6E6E6E"/>
</linearGradient>
<linearGradient id="paint4_linear_1866_160567" x1="78.5" y1="76.7931" x2="78.5" y2="98.7931" gradientUnits="userSpaceOnUse">
<stop offset="0.000134836" stop-color="#3C3C3C"/>
<stop offset="1" stop-color="#6E6E6E"/>
</linearGradient>
<linearGradient id="paint5_linear_1866_160567" x1="78.5" y1="86.7931" x2="78.5" y2="94.7931" gradientUnits="userSpaceOnUse">
<stop offset="0.000134836" stop-color="#3C3C3C"/>
<stop offset="1" stop-color="#6E6E6E"/>
</linearGradient>
<linearGradient id="paint6_linear_1866_160567" x1="78.4998" y1="80.7931" x2="78.4998" y2="87.0153" gradientUnits="userSpaceOnUse">
<stop offset="0.000134836" stop-color="#3C3C3C"/>
<stop offset="1" stop-color="#6E6E6E"/>
</linearGradient>
<linearGradient id="paint7_linear_1866_160567" x1="45.5" y1="98.7931" x2="45.5" y2="118.793" gradientUnits="userSpaceOnUse">
<stop offset="0.000134836" stop-color="#3C3C3C"/>
<stop offset="1" stop-color="#6E6E6E"/>
</linearGradient>
<linearGradient id="paint8_linear_1866_160567" x1="45.5" y1="107.793" x2="45.5" y2="114.793" gradientUnits="userSpaceOnUse">
<stop offset="0.000134836" stop-color="#3C3C3C"/>
<stop offset="1" stop-color="#6E6E6E"/>
</linearGradient>
<linearGradient id="paint9_linear_1866_160567" x1="45.5002" y1="102.793" x2="45.5002" y2="108.126" gradientUnits="userSpaceOnUse">
<stop offset="0.000134836" stop-color="#3C3C3C"/>
<stop offset="1" stop-color="#6E6E6E"/>
</linearGradient>
<linearGradient id="paint10_linear_1866_160567" x1="41.4695" y1="86.9381" x2="40.4824" y2="87.0982" gradientUnits="userSpaceOnUse">
<stop offset="0.000134836" stop-color="#3C3C3C"/>
<stop offset="1" stop-color="#6E6E6E"/>
</linearGradient>
<linearGradient id="paint11_linear_1866_160567" x1="58.3321" y1="76.0297" x2="57.8331" y2="76.8964" gradientUnits="userSpaceOnUse">
<stop offset="0.000134836" stop-color="#3C3C3C"/>
<stop offset="1" stop-color="#6E6E6E"/>
</linearGradient>
<linearGradient id="paint12_linear_1866_160567" x1="82" y1="44.7931" x2="82" y2="53.7931" gradientUnits="userSpaceOnUse">
<stop offset="0.000134836" stop-color="#3C3C3C"/>
<stop offset="1" stop-color="#6E6E6E"/>
</linearGradient>
<linearGradient id="paint13_linear_1866_160567" x1="64" y1="54.7931" x2="64.2659" y2="55.7571" gradientUnits="userSpaceOnUse">
<stop offset="0.000134836" stop-color="#3C3C3C"/>
<stop offset="1" stop-color="#6E6E6E"/>
</linearGradient>
<linearGradient id="paint14_linear_1866_160567" x1="21" y1="87.7931" x2="21" y2="96.7931" gradientUnits="userSpaceOnUse">
<stop offset="0.000134836" stop-color="#3C3C3C"/>
<stop offset="1" stop-color="#6E6E6E"/>
</linearGradient>
<linearGradient id="paint15_linear_1866_160567" x1="26.5" y1="80.7931" x2="27.3944" y2="81.2403" gradientUnits="userSpaceOnUse">
<stop offset="0.000134836" stop-color="#3C3C3C"/>
<stop offset="1" stop-color="#6E6E6E"/>
</linearGradient>
<linearGradient id="paint16_linear_1866_160567" x1="87" y1="128.793" x2="78.6975" y2="144.85" gradientUnits="userSpaceOnUse">
<stop offset="0.000134836" stop-color="#B7B7B7"/>
<stop offset="1" stop-color="#DADADA"/>
</linearGradient>
<linearGradient id="paint17_linear_1866_160567" x1="87" y1="141.793" x2="78.6975" y2="157.85" gradientUnits="userSpaceOnUse">
<stop offset="0.000134836" stop-color="#B7B7B7"/>
<stop offset="1" stop-color="#DADADA"/>
</linearGradient>
<linearGradient id="paint18_linear_1866_160567" x1="87" y1="154.793" x2="78.6975" y2="170.85" gradientUnits="userSpaceOnUse">
<stop offset="0.000134836" stop-color="#B7B7B7"/>
<stop offset="1" stop-color="#DADADA"/>
</linearGradient>
<linearGradient id="paint19_linear_1866_160567" x1="52.9907" y1="183.31" x2="52.9907" y2="195.31" gradientUnits="userSpaceOnUse">
<stop offset="0.000134836" stop-color="#3C3C3C"/>
<stop offset="1" stop-color="#6E6E6E"/>
</linearGradient>
</defs>
</svg>
