<svg width="106" height="196" viewBox="0 0 106 196" fill="none" xmlns="http://www.w3.org/2000/svg">
<rect y="0.793091" width="106" height="176" rx="8" fill="url(#paint0_linear_1866_157966)"/>
<rect width="90" height="160" transform="translate(8 8.79309)" fill="white"/>
<g clip-path="url(#clip0_1866_157966)">
<path d="M64.0778 48.3677C64.609 48.5101 65.1602 48.1919 65.3025 47.6606L63.3707 47.143C63.2283 47.6742 63.5465 48.2254 64.0778 48.3677ZM67.752 46.2464L68.3991 43.8316C68.7964 42.3489 68.3417 40.8967 67.0436 40.1969L67.1316 39.8685C67.239 39.4676 67.0021 39.0573 66.6013 38.9499C66.2004 38.8425 65.7901 39.0794 65.6827 39.4803L65.5947 39.8087C64.1254 39.767 63.0021 40.7911 62.6035 42.2787L61.9565 44.6935L60.7317 45.4006L60.6023 45.8835L68.3297 47.9541L68.4591 47.4711L67.752 46.2464ZM66.6567 46.4705L62.793 45.4353L63.5694 42.5375C63.8904 41.3397 64.8811 40.5595 66.0836 40.8818C67.2862 41.204 67.7541 42.375 67.4331 43.5727L66.6567 46.4705ZM64.2621 39.141L63.7565 38.2653C62.3606 38.8386 61.2326 39.9961 60.7509 41.5234L61.7168 41.7822C62.1322 40.5218 63.0892 39.5773 64.2621 39.141ZM69.4152 43.845L70.3811 44.1038C70.7228 42.5389 70.3247 40.9725 69.4072 39.7794L68.5363 40.2863C69.3243 41.248 69.6857 42.5458 69.4152 43.845Z" fill="url(#paint1_linear_1866_157966)"/>
</g>
<g clip-path="url(#clip1_1866_157966)">
<path d="M44.0451 60.7493C44.6649 60.5832 45.0362 59.9402 44.8701 59.3204L42.6163 59.9243C42.7823 60.5441 43.4253 60.9154 44.0451 60.7493ZM46.52 56.4627L45.7651 53.6454C45.3016 51.9156 43.9952 50.7136 42.2754 50.7637L42.1727 50.3806C42.0474 49.9129 41.5687 49.6366 41.1011 49.7619C40.6334 49.8872 40.357 50.3659 40.4823 50.8335L40.585 51.2167C39.0762 52.0316 38.5386 53.7217 39.0036 55.4571L39.7585 58.2744L38.9336 59.7033L39.0845 60.2667L48.0998 57.8511L47.9489 57.2876L46.52 56.4627ZM45.5441 57.3281L41.0364 58.5359L40.1305 55.1552C39.7561 53.7578 40.302 52.3916 41.705 52.0157C43.108 51.6398 44.2638 52.55 44.6382 53.9473L45.5441 57.3281ZM38.8491 51.3195L37.8275 50.7296C36.7515 52.1231 36.287 53.9506 36.6912 55.7748L37.8181 55.4728C37.5026 53.957 37.9186 52.4445 38.8491 51.3195ZM46.7996 53.0662L47.9265 52.7643C47.3589 50.9839 46.0429 49.6335 44.4199 48.9632L43.8357 49.9833C45.1928 50.4953 46.315 51.5957 46.7996 53.0662Z" fill="url(#paint2_linear_1866_157966)"/>
</g>
<g clip-path="url(#clip2_1866_157966)">
<path d="M53.1658 32.3581C53.6085 32.2395 53.8737 31.7802 53.7551 31.3375L52.1452 31.7689C52.2638 32.2116 52.7231 32.4768 53.1658 32.3581ZM54.9336 29.2963L54.3944 27.2839C54.0633 26.0484 53.1301 25.1898 51.9017 25.2256L51.8284 24.9519C51.7389 24.6179 51.397 24.4205 51.0629 24.51C50.7289 24.5995 50.5315 24.9414 50.621 25.2755L50.6943 25.5491C49.6166 26.1312 49.2326 27.3384 49.5647 28.578L50.104 30.5904L49.5147 31.611L49.6225 32.0135L56.062 30.288L55.9542 29.8855L54.9336 29.2963ZM54.2365 29.9144L51.0167 30.7772L50.3697 28.3623C50.1022 27.3642 50.4921 26.3884 51.4943 26.1199C52.4964 25.8513 53.322 26.5015 53.5894 27.4996L54.2365 29.9144ZM49.4544 25.6226L48.7246 25.2012C47.9561 26.1966 47.6243 27.5019 47.913 28.8049L48.718 28.5892C48.4926 27.5065 48.7897 26.4261 49.4544 25.6226ZM55.1333 26.8703L55.9383 26.6546C55.5328 25.3828 54.5928 24.4183 53.4335 23.9395L53.0162 24.6682C53.9856 25.0339 54.7872 25.8199 55.1333 26.8703Z" fill="url(#paint3_linear_1866_157966)"/>
</g>
<rect x="17" y="126.793" width="72" height="12" rx="2" fill="#F3F3F3"/>
<rect x="19" y="128.793" width="68" height="8" rx="2" fill="url(#paint4_linear_1866_157966)"/>
<rect x="17" y="139.793" width="72" height="12" rx="2" fill="#F3F3F3"/>
<rect x="19" y="141.793" width="68" height="8" rx="2" fill="url(#paint5_linear_1866_157966)"/>
<rect x="17" y="152.793" width="72" height="12" rx="2" fill="#F3F3F3"/>
<rect x="19" y="154.793" width="68" height="8" rx="2" fill="url(#paint6_linear_1866_157966)"/>
<path d="M53 105.45C54.8333 105.45 56.3333 103.95 56.3333 102.117H49.6666C49.6666 103.95 51.1666 105.45 53 105.45ZM63 95.45V87.1167C63 82 60.2833 77.7167 55.5 76.5833V75.45C55.5 74.0667 54.3833 72.95 53 72.95C51.6166 72.95 50.5 74.0667 50.5 75.45V76.5833C45.7333 77.7167 43 81.9833 43 87.1167V95.45L39.6666 98.7833V100.45H66.3333V98.7833L63 95.45ZM59.6666 97.1167H46.3333V87.1167C46.3333 82.9833 48.85 79.6167 53 79.6167C57.15 79.6167 59.6666 82.9833 59.6666 87.1167V97.1167ZM45.6333 75.5833L43.25 73.2C39.25 76.25 36.6166 80.95 36.3833 86.2833H39.7166C39.9666 81.8667 42.2333 78 45.6333 75.5833ZM66.2833 86.2833H69.6166C69.3666 80.95 66.7333 76.25 62.75 73.2L60.3833 75.5833C63.75 78 66.0333 81.8667 66.2833 86.2833Z" fill="url(#paint7_linear_1866_157966)"/>
<ellipse cx="53" cy="189.2" rx="45" ry="6" fill="url(#paint8_linear_1866_157966)"/>
<defs>
<linearGradient id="paint0_linear_1866_157966" x1="53" y1="0.79309" x2="53" y2="176.793" gradientUnits="userSpaceOnUse">
<stop offset="0.000134836" stop-color="#DADADA"/>
<stop offset="1" stop-color="#F3F3F3"/>
</linearGradient>
<linearGradient id="paint1_linear_1866_157966" x1="66.6013" y1="38.9499" x2="64.0778" y2="48.3677" gradientUnits="userSpaceOnUse">
<stop offset="0.000134836" stop-color="#3C3C3C"/>
<stop offset="1" stop-color="#6E6E6E"/>
</linearGradient>
<linearGradient id="paint2_linear_1866_157966" x1="41.1011" y1="49.7619" x2="44.0451" y2="60.7493" gradientUnits="userSpaceOnUse">
<stop offset="0.000134836" stop-color="#3C3C3C"/>
<stop offset="1" stop-color="#6E6E6E"/>
</linearGradient>
<linearGradient id="paint3_linear_1866_157966" x1="51.0629" y1="24.51" x2="53.1658" y2="32.3581" gradientUnits="userSpaceOnUse">
<stop offset="0.000134836" stop-color="#3C3C3C"/>
<stop offset="1" stop-color="#6E6E6E"/>
</linearGradient>
<linearGradient id="paint4_linear_1866_157966" x1="87" y1="128.793" x2="78.6975" y2="144.85" gradientUnits="userSpaceOnUse">
<stop offset="0.000134836" stop-color="#B7B7B7"/>
<stop offset="1" stop-color="#DADADA"/>
</linearGradient>
<linearGradient id="paint5_linear_1866_157966" x1="87" y1="141.793" x2="78.6975" y2="157.85" gradientUnits="userSpaceOnUse">
<stop offset="0.000134836" stop-color="#B7B7B7"/>
<stop offset="1" stop-color="#DADADA"/>
</linearGradient>
<linearGradient id="paint6_linear_1866_157966" x1="87" y1="154.793" x2="78.6975" y2="170.85" gradientUnits="userSpaceOnUse">
<stop offset="0.000134836" stop-color="#B7B7B7"/>
<stop offset="1" stop-color="#DADADA"/>
</linearGradient>
<linearGradient id="paint7_linear_1866_157966" x1="53" y1="72.95" x2="53" y2="105.45" gradientUnits="userSpaceOnUse">
<stop offset="0.000134836" stop-color="#3C3C3C"/>
<stop offset="1" stop-color="#6E6E6E"/>
</linearGradient>
<linearGradient id="paint8_linear_1866_157966" x1="53" y1="183.2" x2="53" y2="195.2" gradientUnits="userSpaceOnUse">
<stop offset="0.000134836" stop-color="#3C3C3C"/>
<stop offset="1" stop-color="#6E6E6E"/>
</linearGradient>
<clipPath id="clip0_1866_157966">
<rect width="12" height="12" fill="white" transform="translate(61.0967 36.3103) rotate(15)"/>
</clipPath>
<clipPath id="clip1_1866_157966">
<rect width="14" height="14" fill="white" transform="translate(34 50.3058) rotate(-15)"/>
</clipPath>
<clipPath id="clip2_1866_157966">
<rect width="10" height="10" fill="white" transform="translate(45.9907 24.8985) rotate(-15)"/>
</clipPath>
</defs>
</svg>
